<svg width="24" height="24" viewBox="0 0 24 24" fill="none" xmlns="http://www.w3.org/2000/svg">
<path d="M11.992 20C11.736 20 11.4891 19.9072 11.2968 19.7388C10.5703 19.1035 9.86982 18.5065 9.25184 17.9799L9.24869 17.9772C7.43687 16.4332 5.87229 15.0998 4.78369 13.7863C3.5668 12.3179 3 10.9257 3 9.40473C3 7.92701 3.50671 6.56372 4.42668 5.56581C5.35763 4.5561 6.63503 4 8.02398 4C9.06209 4 10.0128 4.3282 10.8496 4.97541C11.2719 5.3021 11.6548 5.70192 11.992 6.16828C12.3294 5.70192 12.7121 5.3021 13.1345 4.97541C13.9714 4.3282 14.9221 4 15.9602 4C17.349 4 18.6265 4.5561 19.5575 5.56581C20.4774 6.56372 20.984 7.92701 20.984 9.40473C20.984 10.9257 20.4173 12.3179 19.2005 13.7862C18.1119 15.0998 16.5474 16.433 14.7359 17.9769C14.1168 18.5043 13.4153 19.1023 12.6871 19.739C12.4949 19.9072 12.2479 20 11.992 20ZM8.02398 5.05348C6.93277 5.05348 5.93033 5.48897 5.20108 6.27983C4.46098 7.08263 4.05334 8.19236 4.05334 9.40473C4.05334 10.6839 4.52876 11.8279 5.59472 13.1141C6.62501 14.3574 8.15748 15.6633 9.93184 17.1755L9.93513 17.1782C10.5554 17.7069 11.2586 18.3062 11.9905 18.9461C12.7268 18.3049 13.431 17.7047 14.0526 17.1752C15.8268 15.663 17.3591 14.3574 18.3894 13.1141C19.4553 11.8279 19.9307 10.6839 19.9307 9.40473C19.9307 8.19236 19.523 7.08263 18.7829 6.27983C18.0538 5.48897 17.0512 5.05348 15.9602 5.05348C15.1608 5.05348 14.4269 5.30758 13.7789 5.80866C13.2014 6.25541 12.7991 6.82016 12.5632 7.21531C12.4419 7.41852 12.2284 7.53981 11.992 7.53981C11.7556 7.53981 11.5421 7.41852 11.4208 7.21531C11.1851 6.82016 10.7828 6.25541 10.2052 5.80866C9.55713 5.30758 8.82321 5.05348 8.02398 5.05348Z" fill="white"/>
</svg>
