<svg width="24" height="24" viewBox="0 0 24 24" fill="none" xmlns="http://www.w3.org/2000/svg">
<path d="M12.116 21C11.828 21 11.5503 20.8957 11.3339 20.7061C10.5166 19.9914 9.72855 19.3198 9.03332 18.7274L9.02977 18.7243C6.99148 16.9873 5.23133 15.4873 4.00665 14.0096C2.63765 12.3576 2 10.7914 2 9.08032C2 7.41788 2.57004 5.88418 3.60501 4.76153C4.65233 3.62561 6.08941 3 7.65197 3C8.81985 3 9.88939 3.36922 10.8308 4.09733C11.3059 4.46486 11.7366 4.91466 12.116 5.43932C12.4956 4.91466 12.9261 4.46486 13.4013 4.09733C14.3428 3.36922 15.4123 3 16.5802 3C18.1426 3 19.5798 3.62561 20.6272 4.76153C21.6621 5.88418 22.232 7.41788 22.232 9.08032C22.232 10.7914 21.5945 12.3576 20.2255 14.0094C19.0008 15.4873 17.2408 16.9872 15.2029 18.724C14.5064 19.3173 13.7172 19.99 12.898 20.7064C12.6817 20.8957 12.4039 21 12.116 21Z" fill="#E92728"/>
</svg>
