<svg width="20" height="20" viewBox="0 0 20 20" fill="none" xmlns="http://www.w3.org/2000/svg">
<path d="M9.97206 3.33325C7.23043 3.33325 5 5.56458 5 8.30729C5 12.3937 9.47716 16.3838 9.66782 16.5517C9.75473 16.6282 9.86337 16.6666 9.97206 16.6666C10.0807 16.6666 10.1894 16.6283 10.2763 16.5517C10.4669 16.3838 14.9441 12.3938 14.9441 8.30729C14.9441 5.56458 12.7137 3.33325 9.97206 3.33325ZM9.97206 15.5751C8.98221 14.616 5.92076 11.3988 5.92076 8.30729C5.92076 6.07232 7.73817 4.25401 9.97206 4.25401C12.2059 4.25401 14.0234 6.07232 14.0234 8.30729C14.0234 11.3987 10.9619 14.6159 9.97206 15.5751Z" fill="#000000"/>
<path d="M9.97227 5.99023C8.703 5.99023 7.67041 7.02969 7.67041 8.30735C7.67041 9.58506 8.703 10.6245 9.97227 10.6245C11.2415 10.6245 12.2741 9.58506 12.2741 8.30735C12.2741 7.02969 11.2415 5.99023 9.97227 5.99023ZM9.97227 9.70371C9.2107 9.70371 8.59113 9.07732 8.59113 8.30735C8.59113 7.53743 9.2107 6.91099 9.97227 6.91099C10.7338 6.91099 11.3534 7.53739 11.3534 8.30735C11.3534 9.07732 10.7338 9.70371 9.97227 9.70371Z" fill="#000000"/>
</svg>
