<svg width="14" height="14" viewBox="0 0 14 14" fill="none" xmlns="http://www.w3.org/2000/svg">
<path d="M11.2198 9.88918H7.57102C7.23533 9.88918 6.96289 9.69318 6.96289 9.45167C6.96289 9.21016 7.23533 9.01416 7.57102 9.01416H11.2198C11.5555 9.01416 11.8279 9.21016 11.8279 9.45167C11.8279 9.69318 11.5555 9.88918 11.2198 9.88918Z" fill="#000000"/>
<path d="M9.39534 11.9127C9.15663 11.9127 8.96289 11.6371 8.96289 11.2975V7.60597C8.96289 7.26635 9.15663 6.99072 9.39534 6.99072C9.63405 6.99072 9.82779 7.26635 9.82779 7.60597V11.2975C9.82779 11.6371 9.63405 11.9127 9.39534 11.9127Z" fill="#000000"/>
<path d="M5.33258 12.8334H2.73797C1.86329 12.8334 1.15234 12.1141 1.15234 11.2292V2.77095C1.15234 1.88601 1.86329 1.16675 2.73797 1.16675H11.2425C12.1171 1.16675 12.8281 1.88601 12.8281 2.77095V5.39594C12.8281 5.63744 12.6344 5.83344 12.3957 5.83344C12.1569 5.83344 11.9632 5.63744 11.9632 5.39594V2.77095C11.9632 2.36901 11.6397 2.04175 11.2425 2.04175H2.73797C2.3407 2.04175 2.01721 2.36901 2.01721 2.77095V11.2292C2.01721 11.6311 2.3407 11.9584 2.73797 11.9584H5.33258C5.57129 11.9584 5.76502 12.1544 5.76502 12.3959C5.76502 12.6374 5.57129 12.8334 5.33258 12.8334Z" fill="#000000"/>
</svg>
