<svg width="18" height="13" viewBox="0 0 18 13" fill="none" xmlns="http://www.w3.org/2000/svg">
<path d="M16.0312 0H1.96875C0.883195 0 0 0.883195 0 1.96875V10.4062C0 11.4918 0.883195 12.375 1.96875 12.375H16.0312C17.1168 12.375 18 11.4918 18 10.4062V1.96875C18 0.883195 17.1168 0 16.0312 0ZM1.96875 1.125H16.0312C16.4965 1.125 16.875 1.50353 16.875 1.96875V3.09375H1.125V1.96875C1.125 1.50353 1.50353 1.125 1.96875 1.125ZM16.0312 11.25H1.96875C1.50353 11.25 1.125 10.8715 1.125 10.4062V4.21875H16.875V10.4062C16.875 10.8715 16.4965 11.25 16.0312 11.25Z" fill="#FE4A00"/>
<path d="M3.9375 9.5625H3.375C3.06436 9.5625 2.8125 9.31064 2.8125 9V8.4375C2.8125 8.12686 3.06436 7.875 3.375 7.875H3.9375C4.24814 7.875 4.5 8.12686 4.5 8.4375V9C4.5 9.31064 4.24814 9.5625 3.9375 9.5625Z" fill="#FE4A00"/>
</svg>
