<svg width="14" height="18" viewBox="0 0 14 18" fill="none" xmlns="http://www.w3.org/2000/svg">
<path d="M6.75 0C3.02737 0 0 3.02737 0 6.75C0 11.4289 6.093 17.5759 6.35175 17.8358C6.462 17.9449 6.606 18 6.75 18C6.894 18 7.038 17.9449 7.14825 17.8358C7.407 17.5759 13.5 11.4289 13.5 6.75C13.5 3.02737 10.4726 0 6.75 0ZM6.75 16.6241C5.40675 15.1864 1.125 10.3241 1.125 6.75C1.125 3.64838 3.64838 1.125 6.75 1.125C9.85163 1.125 12.375 3.64838 12.375 6.75C12.375 10.3208 8.09325 15.1864 6.75 16.6241Z" fill="#FE4A00"/>
<path d="M6.75 3.375C4.88925 3.375 3.375 4.88925 3.375 6.75C3.375 8.61075 4.88925 10.125 6.75 10.125C8.61075 10.125 10.125 8.61075 10.125 6.75C10.125 4.88925 8.61075 3.375 6.75 3.375ZM6.75 9C5.50912 9 4.5 7.99088 4.5 6.75C4.5 5.50912 5.50912 4.5 6.75 4.5C7.99088 4.5 9 5.50912 9 6.75C9 7.99088 7.99088 9 6.75 9Z" fill="#FE4A00"/>
</svg>
