<svg width="18" height="18" viewBox="0 0 18 18" fill="none" xmlns="http://www.w3.org/2000/svg">
<rect width="18" height="18" fill="#E5E5E5"/>
<rect width="1920" height="1551" transform="translate(-59 -267)" fill="white"/>
<path d="M14.0625 0H3.9375C1.76288 0 0 1.76288 0 3.9375V14.0625C0 16.2371 1.76288 18 3.9375 18H14.0625C16.2371 18 18 16.2371 18 14.0625V3.9375C18 1.76288 16.2371 0 14.0625 0ZM16.875 14.0625C16.875 15.6158 15.6158 16.875 14.0625 16.875H3.9375C2.38419 16.875 1.125 15.6158 1.125 14.0625V3.9375C1.125 2.38419 2.38419 1.125 3.9375 1.125H14.0625C15.6158 1.125 16.875 2.38419 16.875 3.9375V14.0625Z" fill="#000000"/>
<path d="M5.5 4H4.5C4.22384 4 4 4.22384 4 4.5V5.5C4 5.77616 4.22384 6 4.5 6H5.5C5.77616 6 6 5.77616 6 5.5V4.5C6 4.22384 5.77616 4 5.5 4Z" fill="#000000"/>
<path d="M5.4375 7.875H4.4375C4.16134 7.875 3.9375 8.09884 3.9375 8.375V9.375C3.9375 9.65116 4.16134 9.875 4.4375 9.875H5.4375C5.71366 9.875 5.9375 9.65116 5.9375 9.375V8.375C5.9375 8.09884 5.71366 7.875 5.4375 7.875Z" fill="#000000"/>
<path d="M5.4375 11.8125H4.4375C4.16134 11.8125 3.9375 12.0363 3.9375 12.3125V13.3125C3.9375 13.5887 4.16134 13.8125 4.4375 13.8125H5.4375C5.71366 13.8125 5.9375 13.5887 5.9375 13.3125V12.3125C5.9375 12.0363 5.71366 11.8125 5.4375 11.8125Z" fill="#000000"/>
<path d="M14.0625 4.5H7.3125V5.625H14.0625V4.5Z" fill="#000000"/>
<path d="M14.0625 8.4375H7.3125V9.5625H14.0625V8.4375Z" fill="#000000"/>
<path d="M14.0625 12.375H7.3125V13.5H14.0625V12.375Z" fill="#000000"/>
</svg>
