<svg width="17" height="18" viewBox="0 0 17 18" fill="none" xmlns="http://www.w3.org/2000/svg">
<rect width="17" height="18" fill="#E5E5E5"/>
<rect width="1920" height="1551" transform="translate(-60 -167)" fill="white"/>
<path d="M8.38688 10.1387C2.97854 10.1387 0 12.6972 0 17.3431C0 17.7059 0.294082 18 0.65693 18H16.1168C16.4796 18 16.7737 17.7059 16.7737 17.3431C16.7738 12.6974 13.7952 10.1387 8.38688 10.1387ZM1.33777 16.6861C1.59616 13.2125 3.96439 11.4526 8.38688 11.4526C12.8094 11.4526 15.1776 13.2125 15.4362 16.6861H1.33777Z" fill="#FE4A00"/>
<path d="M8.38695 0C5.90264 0 4.0293 1.91102 4.0293 4.44505C4.0293 7.05329 5.98413 9.17497 8.38695 9.17497C10.7898 9.17497 12.7446 7.05329 12.7446 4.44526C12.7446 1.91102 10.8713 0 8.38695 0ZM8.38695 7.86132C6.70849 7.86132 5.34316 6.3289 5.34316 4.44526C5.34316 2.63081 6.6233 1.31386 8.38695 1.31386C10.1224 1.31386 11.4308 2.65992 11.4308 4.44526C11.4308 6.3289 10.0654 7.86132 8.38695 7.86132Z" fill="#FE4A00"/>
</svg>
