<svg width="20" height="16" viewBox="0 0 20 16" fill="none" xmlns="http://www.w3.org/2000/svg">
<path d="M19.6169 5.28736C19.3678 5.05747 19.0421 4.90422 18.6782 4.90422C18.6973 4.90422 18.7165 4.90422 18.7356 4.90422V2.93103C18.7356 2.12644 18.41 1.39847 17.8736 0.862069C17.3372 0.325671 16.6092 0 15.8046 0H2.93103C2.12644 0 1.39847 0.325671 0.862069 0.862069C0.325671 1.39847 0 2.12644 0 2.93103V12.8352C0 13.6398 0.325671 14.3678 0.862069 14.9042C1.39847 15.4406 2.12644 15.7663 2.93103 15.7663H15.8046C16.6092 15.7663 17.3372 15.4406 17.8736 14.9042C18.41 14.3678 18.7356 13.6398 18.7356 12.8352V10.8429C18.7165 10.8429 18.6973 10.8429 18.6782 10.8429C19.0421 10.8429 19.3678 10.6897 19.6169 10.4598C19.8467 10.2299 20 9.88506 20 9.52107V6.22605C20 5.86207 19.8467 5.5364 19.6169 5.28736ZM17.682 12.8161C17.682 13.3333 17.4713 13.7931 17.1264 14.1379C16.7816 14.4828 16.3218 14.6935 15.8046 14.6935H2.93103C2.41379 14.6935 1.95402 14.4828 1.6092 14.1379C1.26437 13.7931 1.05364 13.3333 1.05364 12.8161V2.93103C1.05364 2.41379 1.26437 1.95402 1.6092 1.6092C1.95402 1.26437 2.41379 1.05364 2.93103 1.05364H15.8046C16.3218 1.05364 16.7816 1.26437 17.1264 1.6092C17.4713 1.95402 17.682 2.41379 17.682 2.93103V4.90422H11.7433C10.9387 4.90422 10.2299 5.22989 9.69349 5.74713C9.17624 6.26437 8.85057 6.99234 8.85057 7.79694V7.93104C8.85057 8.73563 9.17624 9.44445 9.69349 9.98084C10.2107 10.4981 10.9387 10.8238 11.7433 10.8238H17.682V12.8161ZM18.9464 9.52107C18.9464 9.5977 18.908 9.67433 18.8697 9.71264C18.8123 9.77012 18.7548 9.78927 18.6782 9.78927H11.7433C11.2452 9.78927 10.7663 9.57854 10.4406 9.25287C10.1149 8.9272 9.90421 8.44828 9.90421 7.95019V7.81609C9.90421 7.29885 10.1149 6.83908 10.4406 6.51341C10.7854 6.16858 11.2452 5.97701 11.7433 5.97701H18.6782C18.7548 5.97701 18.8314 6.01533 18.8697 6.05364C18.9272 6.11111 18.9464 6.16858 18.9464 6.24521V9.52107Z" fill="#000000"/>
<path d="M11.8781 7.01147C11.6482 7.01147 11.4375 7.10726 11.2842 7.26052C11.1309 7.41378 11.0352 7.62451 11.0352 7.85439C11.0352 8.08428 11.1309 8.29501 11.2842 8.44827C11.4375 8.60152 11.6482 8.69731 11.8781 8.69731C12.108 8.69731 12.3187 8.60152 12.4911 8.44827C12.6444 8.29501 12.7401 8.08428 12.7401 7.83524C12.7401 7.60535 12.6444 7.39462 12.4911 7.2222C12.3187 7.10726 12.108 7.01147 11.8781 7.01147Z" fill="#000000"/>
</svg>
