<svg width="20" height="18" viewBox="0 0 20 18" fill="none" xmlns="http://www.w3.org/2000/svg">
<path d="M14.3475 0C12.355 0 10.8473 1.16934 9.56501 2.39125C8.34309 1.0946 6.77503 0 4.7825 0C1.97636 0 0 2.41276 0 5.04376C0 6.45519 0.578089 7.47208 1.21116 8.42677L8.64377 17.3378C9.47833 18.2207 9.63556 18.2207 10.4701 17.3378L17.9194 8.42677C18.6637 7.47208 19.13 6.45519 19.13 5.04376C19.13 2.41279 17.1536 0 14.3475 0ZM16.7388 8.1793L9.56501 16.7388L2.39125 8.14401C1.5334 6.95138 1.19563 6.14674 1.19563 5.04376C1.19563 2.98847 2.66326 1.13824 4.7825 1.12089C6.52574 1.10654 8.50151 2.88682 9.56501 4.22892C10.6004 2.93346 12.6043 1.12089 14.3475 1.12089C16.4106 1.12089 17.9344 2.98847 17.9344 5.04376C17.9344 6.14674 17.6672 7.01115 16.7388 8.1793Z" fill="#000000"/>
</svg>
