<svg width="14" height="14" viewBox="0 0 14 14" fill="none" xmlns="http://www.w3.org/2000/svg">
<path d="M11.5566 2.91675H2.44206C1.73846 2.91675 1.16602 3.48919 1.16602 4.19279V9.66154C1.16602 10.3651 1.73846 10.9376 2.44206 10.9376H11.5566C12.2602 10.9376 12.8327 10.3651 12.8327 9.66154V4.19279C12.8327 3.48919 12.2602 2.91675 11.5566 2.91675ZM2.44206 3.64591H11.5566C11.8582 3.64591 12.1035 3.89126 12.1035 4.19279V4.92196H1.89518V4.19279C1.89518 3.89126 2.14052 3.64591 2.44206 3.64591ZM11.5566 10.2084H2.44206C2.14052 10.2084 1.89518 9.96307 1.89518 9.66154V5.65112H12.1035V9.66154C12.1035 9.96307 11.8582 10.2084 11.5566 10.2084Z" fill="#000000"/>
<path d="M3.71745 9.11475H3.35286C3.15152 9.11475 2.98828 8.9515 2.98828 8.75016V8.38558C2.98828 8.18424 3.15152 8.021 3.35286 8.021H3.71745C3.91879 8.021 4.08203 8.18424 4.08203 8.38558V8.75016C4.08203 8.9515 3.91879 9.11475 3.71745 9.11475Z" fill="#000000"/>
</svg>
