<svg width="44" height="30" viewBox="0 0 44 30" fill="none" xmlns="http://www.w3.org/2000/svg">
<rect x="0.25" y="0.25" width="43.5" height="29.5" rx="1.75" fill="#1F72CD" stroke="#E5E5E5" stroke-width="0.5"/>
<path fill-rule="evenodd" clip-rule="evenodd" d="M7.88821 10.6248L3.77148 19.6832H8.69979L9.31075 18.2389H10.7073L11.3182 19.6832H16.7429V18.5809L17.2263 19.6832H20.0324L20.5157 18.5576V19.6832H31.7976L33.1694 18.2764L34.4539 19.6832L40.2485 19.6948L36.1188 15.1793L40.2485 10.6248H34.5438L33.2084 12.0055L31.9643 10.6248H19.6912L18.6373 12.9628L17.5586 10.6248H12.6406V11.6896L12.0935 10.6248H7.88821ZM8.84177 11.911H11.2441L13.9747 18.0536V11.911H16.6063L18.7154 16.3152L20.6592 11.911H23.2777V18.411H21.6844L21.6714 13.3176L19.3485 18.411H17.9233L15.5874 13.3176V18.411H12.3097L11.6883 16.9538H8.33111L7.711 18.4097H5.95482L8.84177 11.911ZM31.2139 11.911H24.7354V18.4072H31.1136L33.1694 16.2542L35.1509 18.4072H37.2223L34.2116 15.1779L37.2223 11.911H35.2408L33.1954 14.0392L31.2139 11.911ZM10.0105 13.0106L8.90444 15.6065H11.1152L10.0105 13.0106ZM26.3352 14.4433V13.2567V13.2556H30.3777L32.1415 15.1532L30.2995 17.0612H26.3352V15.7658H29.8696V14.4433H26.3352Z" fill="white"/>
</svg>
