<svg width="40" height="30" viewBox="0 0 40 30" fill="none" xmlns="http://www.w3.org/2000/svg">
<rect x="0.5" y="0.5" width="39" height="29" rx="1.5" fill="white" stroke="#D9D9D9"/>
<path fill-rule="evenodd" clip-rule="evenodd" d="M20.3942 20.3281C19.1874 21.3706 17.622 21.9999 15.9115 21.9999C12.0944 21.9999 9 18.8659 9 15C9 11.134 12.0944 8 15.9115 8C17.622 8 19.1874 8.6293 20.3942 9.67177C21.601 8.6293 23.1664 8 24.8769 8C28.694 8 31.7884 11.134 31.7884 15C31.7884 18.8659 28.694 21.9999 24.8769 21.9999C23.1664 21.9999 21.601 21.3706 20.3942 20.3281Z" fill="#ED0006"/>
<path fill-rule="evenodd" clip-rule="evenodd" d="M20.3945 20.3281C21.8809 19.0442 22.8234 17.1336 22.8234 15C22.8234 12.8664 21.8809 10.9557 20.3945 9.67177C21.6014 8.6293 23.1667 8 24.8772 8C28.6943 8 31.7887 11.134 31.7887 15C31.7887 18.8659 28.6943 21.9999 24.8772 21.9999C23.1667 21.9999 21.6014 21.3706 20.3945 20.3281Z" fill="#F9A000"/>
<path fill-rule="evenodd" clip-rule="evenodd" d="M20.3957 20.3285C21.882 19.0446 22.8245 17.1339 22.8245 15.0003C22.8245 12.8667 21.882 10.956 20.3957 9.67212C18.9093 10.956 17.9668 12.8667 17.9668 15.0003C17.9668 17.1339 18.9093 19.0446 20.3957 20.3285Z" fill="#FF5E00"/>
</svg>
