<svg width="40" height="30" viewBox="0 0 40 30" fill="none" xmlns="http://www.w3.org/2000/svg">
<rect x="0.5" y="0.5" width="39" height="29" rx="1.5" fill="white" stroke="#D9D9D9"/>
<path fill-rule="evenodd" clip-rule="evenodd" d="M11.8337 19.9221H9.12196L7.08851 12.1644C6.992 11.8076 6.78707 11.4921 6.48562 11.3434C5.73332 10.9697 4.90434 10.6723 4 10.5224V10.2237H8.36834C8.97124 10.2237 9.42341 10.6723 9.49877 11.1934L10.5538 16.7893L13.2642 10.2237H15.9006L11.8337 19.9221ZM17.4079 19.9221H14.8469L16.9557 10.2237H19.5167L17.4079 19.9221ZM22.8295 12.9104C22.9049 12.3881 23.3571 12.0894 23.8846 12.0894C24.7136 12.0144 25.6166 12.1644 26.3702 12.5368L26.8224 10.4487C26.0688 10.15 25.2398 10 24.4875 10C22.0019 10 20.1932 11.3434 20.1932 13.2078C20.1932 14.6262 21.4743 15.3709 22.3787 15.8196C23.3571 16.2669 23.7339 16.5656 23.6585 17.013C23.6585 17.684 22.9049 17.9827 22.1526 17.9827C21.2483 17.9827 20.3439 17.759 19.5163 17.3853L19.0641 19.4748C19.9684 19.8471 20.9468 19.9971 21.8512 19.9971C24.6382 20.0708 26.3702 18.7287 26.3702 16.7143C26.3702 14.1775 22.8295 14.0288 22.8295 12.9104ZM35.333 19.9221L33.2996 10.2237H31.1154C30.6633 10.2237 30.2111 10.5224 30.0604 10.9697L26.2949 19.9221H28.9313L29.4575 18.5051H32.6967L32.9981 19.9221H35.333ZM31.4924 12.8357L32.2447 16.4909H30.1359L31.4924 12.8357Z" fill="#172B85"/>
</svg>
