<svg width="75" height="75" viewBox="0 0 75 75" fill="none" xmlns="http://www.w3.org/2000/svg">
<path d="M64.0165 10.9834C56.9336 3.90073 47.5166 0 37.5 0C27.4833 0 18.0661 3.90073 10.9834 10.9834C3.90059 18.0662 0 27.4834 0 37.5C0 47.5166 3.90059 56.9336 10.9834 64.0165C18.0662 71.0993 27.4833 75 37.5 75C47.5166 75 56.9336 71.0993 64.0165 64.0165C71.0993 56.9336 75 47.5166 75 37.5C75 27.4834 71.0993 18.0664 64.0165 10.9834ZM37.5 70.6055C19.2456 70.6055 4.39453 55.7544 4.39453 37.5C4.39453 19.2456 19.2456 4.39453 37.5 4.39453C55.7544 4.39453 70.6055 19.2456 70.6055 37.5C70.6055 55.7544 55.7544 70.6055 37.5 70.6055Z" fill="#33983D"/>
<path d="M55.4161 25.4676C54.5582 24.6097 53.1669 24.6097 52.3089 25.4677L32.9058 44.8709L22.6919 34.6569C21.8339 33.799 20.4426 33.799 19.5845 34.6569C18.7264 35.5149 18.7264 36.9062 19.5845 37.7643L31.352 49.5318C31.7811 49.9609 32.3434 50.1753 32.9056 50.1753C33.4678 50.1753 34.0303 49.9607 34.4592 49.5318L55.4161 28.5749C56.2743 27.717 56.2743 26.3257 55.4161 25.4676Z" fill="#33983D"/>
</svg>
