<svg width="30" height="30" viewBox="0 0 30 30" fill="none" xmlns="http://www.w3.org/2000/svg">
<path d="M14.0197 14.8972C14.5419 15.2459 15.4582 15.2459 15.9806 14.8972C15.9807 14.8971 15.9808 14.8971 15.9809 14.897L24.8819 8.95469C24.59 8.10913 23.7875 7.5 22.8451 7.5H7.15502C6.21263 7.5 5.41016 8.10913 5.11816 8.95469L14.0194 14.8971C14.0195 14.8971 14.0196 14.8971 14.0197 14.8972Z" fill="#000000"/>
<path d="M16.6308 15.8736C16.6307 15.8737 16.6306 15.8738 16.6305 15.8738C16.1734 16.179 15.5866 16.3316 15 16.3316C14.4133 16.3316 13.8267 16.179 13.3696 15.8738C13.3695 15.8738 13.3694 15.8737 13.3694 15.8737L5 10.2864V20.3423C5 21.5321 5.96669 22.5001 7.15494 22.5001H22.8451C24.0334 22.5001 25 21.5321 25 20.3423V10.2864L16.6308 15.8736Z" fill="#000000"/>
</svg>
