<svg width="30" height="30" viewBox="0 0 30 30" fill="none" xmlns="http://www.w3.org/2000/svg">
<path d="M20.4059 5.00416L17.8124 5C14.8986 5 13.0155 6.93192 13.0155 9.92208V12.1915H10.4078C10.1825 12.1915 10 12.3742 10 12.5995V15.8876C10 16.113 10.1827 16.2954 10.4078 16.2954H13.0155V24.5924C13.0155 24.8177 13.198 25.0002 13.4234 25.0002H16.8257C17.051 25.0002 17.2335 24.8175 17.2335 24.5924V16.2954H20.2826C20.5079 16.2954 20.6904 16.113 20.6904 15.8876L20.6916 12.5995C20.6916 12.4913 20.6486 12.3877 20.5722 12.3111C20.4958 12.2346 20.3918 12.1915 20.2836 12.1915H17.2335V10.2677C17.2335 9.34302 17.4539 8.87362 18.6584 8.87362L20.4055 8.87299C20.6307 8.87299 20.8131 8.69031 20.8131 8.46518V5.41198C20.8131 5.18705 20.6309 5.00458 20.4059 5.00416Z" fill="#000000"/>
</svg>
