<svg width="24" height="24" viewBox="0 0 24 24" fill="none" xmlns="http://www.w3.org/2000/svg">
<path d="M20.6442 12.2069C20.6442 11.5951 20.5946 10.98 20.4888 10.3782H12V13.8438H16.8611C16.6594 14.9615 16.0113 15.9503 15.0622 16.5786V18.8273H17.9623C19.6654 17.2598 20.6442 14.945 20.6442 12.2069Z" fill="#4285F4"/>
<path d="M11.9994 21C14.4266 21 16.4736 20.203 17.965 18.8274L15.0649 16.5787C14.258 17.1276 13.2163 17.4385 12.0027 17.4385C9.6548 17.4385 7.66405 15.8545 6.94976 13.7249H3.95703V16.043C5.48481 19.082 8.59659 21 11.9994 21Z" fill="#34A853"/>
<path d="M6.94677 13.7248C6.56978 12.6071 6.56978 11.3968 6.94677 10.2791V7.96094H3.95734C2.68089 10.5039 2.68089 13.5 3.95734 16.043L6.94677 13.7248Z" fill="#FBBC04"/>
<path d="M11.9994 6.56212C13.2824 6.54228 14.5225 7.02509 15.4518 7.91133L18.0212 5.34188C16.3942 3.8141 14.2348 2.97415 11.9994 3.00061C8.59659 3.00061 5.48481 4.9186 3.95703 7.96094L6.94646 10.2791C7.65744 8.14612 9.65149 6.56212 11.9994 6.56212Z" fill="#EA4335"/>
</svg>
