<svg width="24" height="24" viewBox="0 0 24 24" fill="none" xmlns="http://www.w3.org/2000/svg">
<path d="M21.046 4.59133C20.5417 4.08683 19.943 3.68663 19.284 3.41358C18.6251 3.14054 17.9188 3 17.2055 3C16.4922 3 15.7858 3.14054 15.1269 3.41358C14.4679 3.68663 13.8692 4.08683 13.3649 4.59133L12.3184 5.63785L11.2719 4.59133C10.2533 3.57276 8.87182 3.00053 7.43134 3.00053C5.99086 3.00053 4.60938 3.57276 3.5908 4.59133C2.57223 5.6099 2 6.99139 2 8.43187C2 9.87235 2.57223 11.2538 3.5908 12.2724L4.63732 13.3189L12.3184 21L19.9995 13.3189L21.046 12.2724C21.5505 11.7681 21.9507 11.1694 22.2237 10.5105C22.4968 9.85148 22.6373 9.14517 22.6373 8.43187C22.6373 7.71857 22.4968 7.01225 22.2237 6.35328C21.9507 5.69431 21.5505 5.09559 21.046 4.59133V4.59133Z" stroke="black" stroke-width="1.5" stroke-linecap="round" stroke-linejoin="round"/>
</svg>
