<svg width="30" height="30" viewBox="0 0 30 30" fill="none" xmlns="http://www.w3.org/2000/svg">
<path d="M15.0032 9.8645C12.1674 9.8645 9.87158 12.1628 9.87158 14.9961C9.87158 17.8319 12.1699 20.1277 15.0032 20.1277C17.8389 20.1277 20.1347 17.8294 20.1347 14.9961C20.1347 12.1603 17.8364 9.8645 15.0032 9.8645ZM15.0032 18.3269C13.1624 18.3269 11.6724 16.836 11.6724 14.9961C11.6724 13.1561 13.1632 11.6653 15.0032 11.6653C16.8431 11.6653 18.3339 13.1561 18.3339 14.9961C18.3348 16.836 16.844 18.3269 15.0032 18.3269Z" fill="#000000"/>
<path d="M19.1233 5.06282C17.2833 4.97699 12.7259 4.98116 10.8843 5.06282C9.26595 5.13865 7.83847 5.52948 6.68766 6.68029C4.76436 8.60359 5.01019 11.1952 5.01019 14.996C5.01019 18.8859 4.79353 21.4175 6.68766 23.3117C8.61846 25.2416 11.2476 24.9891 15.0033 24.9891C18.8566 24.9891 20.1866 24.9916 21.5491 24.4641C23.4015 23.745 24.7998 22.0892 24.9365 19.1151C25.0232 17.2743 25.0182 12.7177 24.9365 10.8761C24.7715 7.36528 22.8874 5.23615 19.1233 5.06282ZM22.0357 22.0392C20.7749 23.3 19.0258 23.1875 14.9792 23.1875C10.8126 23.1875 9.14178 23.2492 7.92264 22.0267C6.5185 20.6292 6.77266 18.3851 6.77266 14.9826C6.77266 10.3786 6.30017 7.06279 10.9209 6.82612C11.9826 6.78862 12.2951 6.77612 14.9675 6.77612L15.005 6.80112C19.4458 6.80112 22.9299 6.33613 23.139 10.9561C23.1865 12.0102 23.1974 12.3269 23.1974 14.9951C23.1965 19.1134 23.2749 20.7942 22.0357 22.0392Z" fill="#000000"/>
<path d="M20.3383 10.8612C21.0006 10.8612 21.5375 10.3243 21.5375 9.66203C21.5375 8.99976 21.0006 8.46289 20.3383 8.46289C19.676 8.46289 19.1392 8.99976 19.1392 9.66203C19.1392 10.3243 19.676 10.8612 20.3383 10.8612Z" fill="#000000"/>
</svg>
