<svg width="30" height="30" viewBox="0 0 30 30" fill="none" xmlns="http://www.w3.org/2000/svg">
<path d="M24.9949 25V24.9991H24.9999V17.6642C24.9999 14.0759 24.2274 11.3118 20.0325 11.3118C18.0158 11.3118 16.6625 12.4184 16.11 13.4676H16.0517V11.6468H12.0742V24.9991H16.2158V18.3875C16.2158 16.6467 16.5458 14.9634 18.7017 14.9634C20.8258 14.9634 20.8575 16.95 20.8575 18.4992V25H24.9949Z" fill="#000000"/>
<path d="M5.33008 11.6477H9.47671V25.0001H5.33008V11.6477Z" fill="#000000"/>
<path d="M7.40164 5C6.07582 5 5 6.07582 5 7.40165C5 8.72747 6.07582 9.82579 7.40164 9.82579C8.72747 9.82579 9.80329 8.72747 9.80329 7.40165C9.80245 6.07582 8.72663 5 7.40164 5V5Z" fill="#000000"/>
</svg>
