<svg width="15" height="20" viewBox="0 0 15 20" fill="none" xmlns="http://www.w3.org/2000/svg">
<path d="M13.2973 3.4249C12.0835 1.33021 9.92758 0.0504882 7.53013 0.00158203C7.42778 -0.000527343 7.32478 -0.000527343 7.22239 0.00158203C4.82497 0.0504882 2.66904 1.33021 1.45521 3.4249C0.214508 5.56599 0.180563 8.13786 1.36439 10.3047L6.32388 19.3823C6.3261 19.3863 6.32833 19.3904 6.33064 19.3943C6.54884 19.7736 6.93974 20 7.37634 20C7.8129 20 8.2038 19.7736 8.42196 19.3943C8.42427 19.3904 8.42649 19.3863 8.42872 19.3823L13.3882 10.3047C14.572 8.13786 14.538 5.56599 13.2973 3.4249ZM7.37626 9.06251C5.82544 9.06251 4.56376 7.80083 4.56376 6.25001C4.56376 4.69919 5.82544 3.43752 7.37626 3.43752C8.92708 3.43752 10.1888 4.69919 10.1888 6.25001C10.1888 7.80083 8.92712 9.06251 7.37626 9.06251Z" fill="#202020"/>
</svg>
