<svg width="20" height="21" viewBox="0 0 20 21" fill="none" xmlns="http://www.w3.org/2000/svg">
<path d="M15.1561 5.45788H12.7839V4.49039C12.7839 3.93109 12.3344 3.47607 11.7818 3.47607H8.21784C7.66529 3.47607 7.21576 3.93109 7.21576 4.49039V5.45788H4.84359C4.47022 5.45788 4.1665 5.7653 4.1665 6.14323V7.39927C4.1665 7.7772 4.47022 8.08462 4.84359 8.08462H5.23684V17.5166C5.23684 18.0457 5.6621 18.4761 6.18475 18.4761H13.8149C14.3375 18.4761 14.7628 18.0457 14.7628 17.5166V8.08468H15.1561C15.5295 8.08468 15.8332 7.77726 15.8332 7.39933V6.14323C15.8332 5.76535 15.5294 5.45788 15.1561 5.45788ZM8.02826 4.49039C8.02826 4.38638 8.11508 4.29849 8.21784 4.29849H11.7818C11.8846 4.29849 11.9714 4.38638 11.9714 4.49039V5.45788H8.02826V4.49039ZM13.9503 17.5166C13.9503 17.5909 13.8883 17.6537 13.8149 17.6537H6.18475C6.11135 17.6537 6.04933 17.5909 6.04933 17.5166V8.08468H13.9503V17.5166ZM15.0207 7.26226H4.979V6.28029H15.0207V7.26226Z" fill="#000000"/>
<path d="M7.62207 16.491C7.84643 16.491 8.02832 16.3069 8.02832 16.0798V9.80696C8.02832 9.57986 7.84643 9.39575 7.62207 9.39575C7.39766 9.39575 7.21582 9.57986 7.21582 9.80696V16.0798C7.21582 16.3069 7.39766 16.491 7.62207 16.491Z" fill="#000000"/>
<path d="M10 16.491C10.2244 16.491 10.4062 16.3069 10.4062 16.0798V9.80696C10.4062 9.57986 10.2244 9.39575 10 9.39575C9.77559 9.39575 9.59375 9.57986 9.59375 9.80696V16.0798C9.59375 16.3069 9.77564 16.491 10 16.491Z" fill="#000000"/>
<path d="M12.3777 16.491C12.6021 16.491 12.7839 16.3069 12.7839 16.0798V9.80696C12.7839 9.57986 12.6021 9.39575 12.3777 9.39575C12.1533 9.39575 11.9714 9.57986 11.9714 9.80696V16.0798C11.9714 16.3069 12.1533 16.491 12.3777 16.491Z" fill="#000000"/>
</svg>
