<svg width="24" height="24" viewBox="0 0 24 24" fill="none" xmlns="http://www.w3.org/2000/svg">
<path fill-rule="evenodd" clip-rule="evenodd" d="M3 15.4595C3 15.0564 3.32671 14.7297 3.72973 14.7297H9.56757C9.97059 14.7297 10.2973 15.0564 10.2973 15.4595C10.2973 15.8625 9.97059 16.1892 9.56757 16.1892H3.72973C3.32671 16.1892 3 15.8625 3 15.4595Z" fill="#14181F"/>
<path fill-rule="evenodd" clip-rule="evenodd" d="M3 10.5946C3 10.1916 3.32671 9.86487 3.72973 9.86487H12.4865C12.8895 9.86487 13.2162 10.1916 13.2162 10.5946C13.2162 10.9976 12.8895 11.3243 12.4865 11.3243H3.72973C3.32671 11.3243 3 10.9976 3 10.5946Z" fill="#14181F"/>
<path fill-rule="evenodd" clip-rule="evenodd" d="M17.3513 8.89191C17.7543 8.89191 18.081 9.21862 18.081 9.62164V15.6437L19.7542 13.9705C20.0392 13.6855 20.5012 13.6855 20.7862 13.9705C21.0712 14.2555 21.0712 14.7175 20.7862 15.0025L17.8673 17.9214C17.5823 18.2064 17.1203 18.2064 16.8353 17.9214L13.9164 15.0025C13.6314 14.7175 13.6314 14.2555 13.9164 13.9705C14.2013 13.6855 14.6634 13.6855 14.9484 13.9705L16.6216 15.6437V9.62164C16.6216 9.21862 16.9483 8.89191 17.3513 8.89191Z" fill="#14181F"/>
<path fill-rule="evenodd" clip-rule="evenodd" d="M3 5.72973C3 5.32671 3.32671 5 3.72973 5H15.4054C15.8084 5 16.1351 5.32671 16.1351 5.72973C16.1351 6.13275 15.8084 6.45946 15.4054 6.45946H3.72973C3.32671 6.45946 3 6.13275 3 5.72973Z" fill="#14181F"/>
</svg>
