<svg width="24" height="24" viewBox="0 0 24 24" fill="none" xmlns="http://www.w3.org/2000/svg">
<path fill-rule="evenodd" clip-rule="evenodd" d="M16.8354 5.21373C17.1203 4.92876 17.5824 4.92876 17.8673 5.21373L20.7863 8.13265C21.0712 8.41763 21.0712 8.87967 20.7863 9.16464C20.5013 9.44962 20.0393 9.44962 19.7543 9.16464L18.0811 7.49145V13.5135C18.0811 13.9165 17.7544 14.2432 17.3514 14.2432C16.9483 14.2432 16.6216 13.9165 16.6216 13.5135V7.49145L14.9484 9.16464C14.6635 9.44962 14.2014 9.44962 13.9164 9.16464C13.6315 8.87967 13.6315 8.41763 13.9164 8.13265L16.8354 5.21373ZM3 7.67568C3 7.27266 3.32671 6.94595 3.72973 6.94595H9.56757C9.97059 6.94595 10.2973 7.27266 10.2973 7.67568C10.2973 8.07869 9.97059 8.40541 9.56757 8.40541H3.72973C3.32671 8.40541 3 8.07869 3 7.67568ZM3 12.5405C3 12.1375 3.32671 11.8108 3.72973 11.8108H12.4865C12.8895 11.8108 13.2162 12.1375 13.2162 12.5405C13.2162 12.9436 12.8895 13.2703 12.4865 13.2703H3.72973C3.32671 13.2703 3 12.9436 3 12.5405ZM3 17.4054C3 17.0024 3.32671 16.6757 3.72973 16.6757H15.4054C15.8084 16.6757 16.1351 17.0024 16.1351 17.4054C16.1351 17.8084 15.8084 18.1351 15.4054 18.1351H3.72973C3.32671 18.1351 3 17.8084 3 17.4054Z" fill="#14181F"/>
</svg>
