<svg width="30" height="30" viewBox="0 0 30 30" fill="none" xmlns="http://www.w3.org/2000/svg">
<path d="M24.5862 9.98769C25.5872 9.27692 26.4292 8.38974 27.1154 7.36821V7.36718C26.1995 7.76821 25.2251 8.03487 24.2077 8.1641C25.2538 7.53949 26.0528 6.55795 26.4282 5.37538C25.4528 5.95692 24.3759 6.36718 23.2282 6.59692C22.3021 5.61026 20.9821 5 19.5421 5C16.7482 5 14.499 7.26769 14.499 10.0472C14.499 10.4472 14.5328 10.8318 14.6159 11.1979C10.421 10.9928 6.70821 8.98256 4.21385 5.91897C3.77897 6.67487 3.52256 7.53949 3.52256 8.46974C3.52256 10.2174 4.42205 11.7662 5.76462 12.6636C4.95333 12.6482 4.15846 12.4123 3.48462 12.0421V12.0974C3.48462 14.5497 5.23333 16.5867 7.52769 17.0564C7.11641 17.1692 6.66923 17.2226 6.20462 17.2226C5.88154 17.2226 5.55538 17.2041 5.24974 17.1364C5.90308 19.1344 7.75949 20.6041 9.96462 20.6523C8.24769 21.9949 6.06718 22.8041 3.70718 22.8041C3.29385 22.8041 2.89692 22.7856 2.5 22.7354C4.7359 24.1764 7.3841 25 10.2415 25C19.1472 25 24.9513 17.5703 24.5862 9.98769Z" fill="#000000"/>
</svg>
